# xmcd
#
# Track frame offsets:
#	150
#	11372
#	24493
#	33238
#	43080
#	54133
#	68442
#	78314
#	87537
#	99373
#	107993
#	119089
#	132607
#	141328
#	151170
#	162157
#	176762
#	186665
#	196027
#	207724
#
# Disc length: 2883 seconds
# Revision: 0
# Processed by: cddbd v1.5.2PL0 Copyright (c) Steve Scherf et al.
# Submitted via: dBpowerAMP V12.0
#
DISCID=160b4114
DTITLE=Group Publishing - High Seas Expedition: Sing and Play Splash Music (Leader Version)
DYEAR=2010
DGENRE=Children's Christian
TTITLE0=Vast Voyage (Theme Song)
TTITLE1=Today Is The Day
TTITLE2=Shout To The North
TTITLE3=Ha-La-La-La
TTITLE4=Your Life Will Change
TTITLE5=Ancient Words
TTITLE6=I Could Sing Of Your Love Forever
TTITLE7=Oh The Deep, Deep Love Of Jesus
TTITLE8=Let The Praises Ring
TTITLE9=Jump, Jump, Jump
TTITLE10=Vast Voyage (Theme Song)(Instrumental)
TTITLE11=Today Is the Day (Instrumental)
TTITLE12=Shout To The North (Instrumental)
TTITLE13=Ha-La-La-La (Instrumental)
TTITLE14=Your Life Will Change (Instrumental)
TTITLE15=Ancient Words (Instrumental)
TTITLE16=I Could Sing Of Your Love Forever (Instrumental)
TTITLE17=Oh The Deep, Deep Love Of Jesus (Instrumental)
TTITLE18=Let The Praises Ring (Instrumental)
TTITLE19=Jump, Jump, Jump (Instrumental)
EXTD=
EXTT0=
EXTT1=
EXTT2=
EXTT3=
EXTT4=
EXTT5=
EXTT6=
EXTT7=
EXTT8=
EXTT9=
EXTT10=
EXTT11=
EXTT12=
EXTT13=
EXTT14=
EXTT15=
EXTT16=
EXTT17=
EXTT18=
EXTT19=
PLAYORDER=
